<svg width="92" height="77" viewBox="0 0 92 77" xmlns="http://www.w3.org/2000/svg"><title>mediakit</title><path d="M85.035.506L4.257 31.662c-5.513 2.212-5.48 5.287-1.005 6.658L23.4 44.608l7.708 23.634c.937 2.587.475 3.613 3.192 3.613 2.096 0 3.026-.956 4.193-2.097.743-.726 5.15-5.012 10.073-9.797L69.52 75.444c3.856 2.127 6.64 1.025 7.6-3.582L90.878 7.04c1.409-5.647-2.152-8.208-5.842-6.533zM26.56 43.164l45.41-28.65c2.267-1.375 4.346-.635 2.64.88L35.725 50.476l-1.514 16.147-7.652-23.46z" fill="#FFF"/></svg>