<svg viewBox="0 0 1017 301" xmlns="http://www.w3.org/2000/svg"><g fill="none" fill-rule="evenodd"><path d="M14.71 266.341c1.509 1.07 3.139 2.421 4.891 4.052a76.055 76.055 0 0 1 5.146 5.292 86.2 86.2 0 0 1 4.709 5.804c1.46 1.97 2.701 3.808 3.723 5.511h-8.03a53.198 53.198 0 0 0-3.76-5.073 87.647 87.647 0 0 0-4.489-5.001 67.001 67.001 0 0 0-4.745-4.453c-1.606-1.363-3.115-2.506-4.526-3.431V287H.84v-37.96h6.789v16.279a431.954 431.954 0 0 0 4.015-3.906 790.568 790.568 0 0 0 4.562-4.526 227.071 227.071 0 0 0 4.271-4.38 171.86 171.86 0 0 0 3.212-3.467h7.884a207.055 207.055 0 0 1-3.76 3.978 725.614 725.614 0 0 1-4.453 4.563l-4.562 4.636a732.713 732.713 0 0 1-4.088 4.124zm38.279 15.768a73.6 73.6 0 0 0 4.27-.11c1.242-.073 2.276-.206 3.103-.401v-11.315c-.487-.243-1.277-.45-2.373-.62-1.095-.17-2.42-.256-3.978-.256-1.022 0-2.105.073-3.248.219-1.144.146-2.19.45-3.14.913a6.723 6.723 0 0 0-2.372 1.898c-.633.803-.949 1.861-.949 3.175 0 2.433.779 4.124 2.336 5.073 1.557.95 3.674 1.424 6.351 1.424zm-.584-34.018c2.725 0 5.025.353 6.898 1.058 1.874.706 3.383 1.704 4.527 2.994 1.143 1.29 1.958 2.822 2.445 4.599.487 1.776.73 3.735.73 5.876v23.725c-.584.097-1.4.231-2.445.401-1.047.17-2.227.329-3.541.475-1.314.146-2.737.28-4.27.401a57.65 57.65 0 0 1-4.563.183c-2.141 0-4.112-.219-5.913-.657-1.8-.438-3.358-1.131-4.672-2.08-1.314-.95-2.336-2.203-3.066-3.76s-1.095-3.431-1.095-5.621c0-2.093.426-3.893 1.278-5.402a10.177 10.177 0 0 1 3.467-3.65c1.46-.925 3.163-1.606 5.11-2.044a27.864 27.864 0 0 1 6.132-.657c.681 0 1.387.036 2.117.11.73.072 1.423.17 2.08.291.658.122 1.23.232 1.716.329.487.097.827.17 1.022.219v-1.898c0-1.12-.122-2.226-.365-3.322a7.597 7.597 0 0 0-1.314-2.92c-.633-.851-1.496-1.532-2.591-2.044-1.096-.51-2.519-.766-4.271-.766-2.239 0-4.197.158-5.877.474-1.679.317-2.932.645-3.759.986l-.803-5.621c.876-.39 2.336-.766 4.38-1.132 2.044-.365 4.258-.547 6.643-.547zm30.249.949v11.169c0 2.871.73 4.879 2.19 6.023 1.46 1.143 3.455 1.715 5.986 1.715 1.85 0 3.394-.097 4.636-.292a38.234 38.234 0 0 0 3.321-.657V249.04h6.789V287h-6.789v-14.746c-.39.097-.9.219-1.533.365-.633.146-1.35.28-2.154.401-.803.122-1.642.232-2.518.329-.876.097-1.728.146-2.555.146-2.093 0-4.003-.219-5.73-.657-1.728-.438-3.212-1.168-4.453-2.19-1.242-1.022-2.215-2.372-2.92-4.052-.706-1.679-1.059-3.783-1.059-6.314V249.04h6.789zm32.585 19.053c0-3.358.487-6.29 1.46-8.797.973-2.506 2.263-4.586 3.869-6.241a15.709 15.709 0 0 1 5.548-3.723 17.33 17.33 0 0 1 6.424-1.241c5.11 0 9.028 1.594 11.753 4.781 2.725 3.188 4.088 8.043 4.088 14.564v1.131c0 .463-.024.889-.073 1.278H122.32c.292 3.942 1.436 6.935 3.431 8.979 1.995 2.044 5.11 3.066 9.344 3.066 2.385 0 4.392-.207 6.023-.62 1.63-.414 2.859-.816 3.686-1.205l.949 5.694c-.827.438-2.275.9-4.343 1.387-2.069.487-4.417.73-7.045.73-3.31 0-6.168-.499-8.578-1.496-2.409-.998-4.392-2.373-5.949-4.125-1.557-1.752-2.713-3.832-3.467-6.241-.755-2.41-1.132-5.05-1.132-7.921zm26.061-3.723c.049-3.066-.718-5.584-2.3-7.555-1.581-1.972-3.759-2.957-6.533-2.957-1.557 0-2.932.304-4.125.912a9.727 9.727 0 0 0-3.029 2.373 10.92 10.92 0 0 0-1.934 3.358 16.568 16.568 0 0 0-.913 3.869H141.3zm33.461 23.506c-3.066 0-5.755-.487-8.066-1.46-2.312-.973-4.259-2.336-5.84-4.088-1.582-1.752-2.762-3.832-3.541-6.241-.779-2.41-1.168-5.074-1.168-7.994s.426-5.597 1.278-8.03c.851-2.433 2.056-4.538 3.613-6.314 1.557-1.777 3.467-3.164 5.73-4.161 2.264-.998 4.782-1.497 7.556-1.497 1.703 0 3.407.146 5.11.438 1.703.292 3.334.754 4.891 1.387l-1.533 5.767c-1.022-.487-2.202-.876-3.54-1.168a20 20 0 0 0-4.271-.438c-3.796 0-6.704 1.192-8.724 3.577-2.02 2.385-3.029 5.864-3.029 10.439 0 2.044.231 3.918.694 5.621.462 1.703 1.192 3.163 2.19 4.38.997 1.217 2.275 2.153 3.832 2.81 1.557.658 3.455.986 5.694.986 1.8 0 3.431-.17 4.891-.511 1.46-.34 2.604-.706 3.431-1.095l.949 5.694c-.39.243-.949.474-1.679.693-.73.22-1.557.414-2.482.584-.925.17-1.91.317-2.957.438a26.242 26.242 0 0 1-3.029.183zm45.433-38.836v5.694h-12.337V287h-6.789v-32.266h-12.337v-5.694h31.463zm13.751 32.85c.292.049.706.097 1.241.146a33.92 33.92 0 0 0 1.825.11c.681.024 1.4.048 2.154.072.754.025 1.472.037 2.153.037 1.411 0 2.762-.097 4.051-.292 1.29-.195 2.41-.535 3.358-1.022.95-.487 1.704-1.131 2.263-1.934.56-.804.84-1.838.84-3.103 0-1.217-.255-2.226-.767-3.03a5.691 5.691 0 0 0-2.08-1.934c-.876-.487-1.91-.827-3.102-1.022a23.801 23.801 0 0 0-3.833-.292h-8.103v12.264zm7.227-17.301a23.59 23.59 0 0 0 3.614-.256c1.095-.17 2.043-.474 2.846-.912a5.073 5.073 0 0 0 1.898-1.752c.463-.73.694-1.655.694-2.774 0-1.168-.292-2.093-.876-2.774-.584-.681-1.35-1.204-2.3-1.57-.949-.365-2.02-.608-3.212-.73a35.574 35.574 0 0 0-3.613-.182c-1.12 0-2.25.024-3.395.073-1.143.049-2.104.097-2.883.146v10.731h7.227zm-.146 23.068c-2.871 0-5.524-.134-7.957-.401-2.433-.268-4.356-.572-5.767-.913v-36.938c1.411-.34 3.334-.645 5.767-.912 2.433-.268 5.086-.402 7.957-.402 1.995 0 3.942.17 5.84.511 1.898.34 3.577.912 5.037 1.715a9.765 9.765 0 0 1 3.54 3.285c.9 1.388 1.351 3.103 1.351 5.147 0 1.85-.462 3.431-1.387 4.745s-2.166 2.336-3.723 3.066c2.093.73 3.76 1.813 5 3.249 1.242 1.435 1.862 3.443 1.862 6.022 0 2.287-.45 4.185-1.35 5.694-.9 1.509-2.142 2.725-3.724 3.65-1.581.925-3.443 1.57-5.584 1.935-2.141.365-4.429.547-6.862.547zm24.263-19.564c0-3.358.487-6.29 1.46-8.797.973-2.506 2.263-4.586 3.869-6.241a15.709 15.709 0 0 1 5.548-3.723 17.33 17.33 0 0 1 6.424-1.241c5.11 0 9.028 1.594 11.753 4.781 2.725 3.188 4.088 8.043 4.088 14.564v1.131c0 .463-.024.889-.073 1.278H272.37c.292 3.942 1.436 6.935 3.431 8.979 1.995 2.044 5.11 3.066 9.344 3.066 2.385 0 4.392-.207 6.023-.62 1.63-.414 2.859-.816 3.686-1.205l.949 5.694c-.827.438-2.275.9-4.344 1.387-2.068.487-4.416.73-7.044.73-3.31 0-6.168-.499-8.578-1.496-2.409-.998-4.392-2.373-5.949-4.125-1.557-1.752-2.713-3.832-3.467-6.241-.755-2.41-1.132-5.05-1.132-7.921zm26.061-3.723c.049-3.066-.718-5.584-2.3-7.555-1.581-1.972-3.759-2.957-6.533-2.957-1.557 0-2.932.304-4.125.912a9.727 9.727 0 0 0-3.029 2.373 10.92 10.92 0 0 0-1.935 3.358 16.568 16.568 0 0 0-.912 3.869h18.834zM339.411 287h-6.789v-16.79h-17.52V287h-6.789v-37.96h6.789v15.476h17.52V249.04h6.789V287zm42.878 0H375.5v-16.79h-17.52V287h-6.789v-37.96h6.789v15.476h17.52V249.04h6.789V287zm24.628-4.891a73.6 73.6 0 0 0 4.27-.11c1.242-.073 2.276-.206 3.103-.401v-11.315c-.487-.243-1.277-.45-2.373-.62-1.095-.17-2.42-.256-3.978-.256-1.022 0-2.105.073-3.249.219a9.997 9.997 0 0 0-3.139.913 6.723 6.723 0 0 0-2.372 1.898c-.633.803-.949 1.861-.949 3.175 0 2.433.779 4.124 2.336 5.073 1.557.95 3.674 1.424 6.351 1.424zm-.584-34.018c2.725 0 5.025.353 6.898 1.058 1.874.706 3.383 1.704 4.526 2.994 1.144 1.29 1.96 2.822 2.446 4.599.487 1.776.73 3.735.73 5.876v23.725c-.584.097-1.4.231-2.445.401-1.047.17-2.227.329-3.541.475-1.314.146-2.737.28-4.27.401a57.65 57.65 0 0 1-4.563.183c-2.141 0-4.112-.219-5.913-.657-1.8-.438-3.358-1.131-4.672-2.08-1.314-.95-2.336-2.203-3.066-3.76s-1.095-3.431-1.095-5.621c0-2.093.426-3.893 1.278-5.402a10.177 10.177 0 0 1 3.467-3.65c1.46-.925 3.163-1.606 5.11-2.044a27.864 27.864 0 0 1 6.132-.657c.681 0 1.387.036 2.117.11.73.072 1.423.17 2.08.291.658.122 1.23.232 1.716.329.487.097.827.17 1.022.219v-1.898c0-1.12-.122-2.226-.365-3.322a7.597 7.597 0 0 0-1.314-2.92c-.633-.851-1.496-1.532-2.591-2.044-1.096-.51-2.519-.766-4.271-.766-2.239 0-4.197.158-5.877.474-1.679.317-2.932.645-3.759.986l-.803-5.621c.876-.39 2.336-.766 4.38-1.132 2.044-.365 4.258-.547 6.643-.547zm41.637 24.163c-.73 0-1.436-.012-2.117-.037a48.106 48.106 0 0 1-1.971-.109 95.05 95.05 0 0 0-4.49 7.483A204.418 204.418 0 0 0 435.56 287h-6.862a52.953 52.953 0 0 1 2.044-4.344 144.9 144.9 0 0 1 2.373-4.343 76.153 76.153 0 0 1 2.445-4.015 101.453 101.453 0 0 1 2.336-3.431c-1.363-.487-2.482-1.083-3.358-1.789-.876-.705-1.582-1.496-2.117-2.372a9.092 9.092 0 0 1-1.132-2.81 14.088 14.088 0 0 1-.328-3.03c0-2.141.401-4.015 1.204-5.621a10.999 10.999 0 0 1 3.322-3.979c1.411-1.046 3.078-1.837 5-2.372 1.923-.535 4.028-.803 6.315-.803 3.212 0 5.937.146 8.176.438 2.239.292 4.112.633 5.621 1.022V287h-6.716v-14.746h-5.913zm5.913-18.177c-.535-.097-1.423-.195-2.664-.292a55.253 55.253 0 0 0-4.271-.146c-2.774 0-5.013.572-6.716 1.715-1.703 1.144-2.555 2.957-2.555 5.439 0 2.433.876 4.112 2.628 5.037 1.752.925 4.015 1.387 6.789 1.387h6.789v-13.14zm67.36-5.037V287h-6.57v-28.908c-1.46 1.85-3.066 4.015-4.818 6.497a301.793 301.793 0 0 0-5.256 7.701 347.362 347.362 0 0 0-5.037 7.848 297.961 297.961 0 0 0-4.161 6.862h-6.059v-37.96h6.57v27.302a314.681 314.681 0 0 1 4.307-6.899 209.3 209.3 0 0 1 5-7.446 223.222 223.222 0 0 1 5.183-7.08c1.728-2.264 3.346-4.222 4.855-5.877h5.986zM564.121 287h-6.789v-16.79h-17.52V287h-6.789v-37.96h6.789v15.476h17.52V249.04h6.789V287zm16.525-18.98c0 2.141.353 4.04 1.059 5.694.705 1.655 1.69 3.054 2.956 4.197 1.265 1.144 2.762 2.02 4.49 2.628 1.727.609 3.589.937 5.584.986v-27.01c-1.995.049-3.857.39-5.585 1.022-1.727.633-3.224 1.52-4.489 2.664-1.265 1.144-2.25 2.543-2.956 4.198-.706 1.655-1.059 3.528-1.059 5.621zm20.659 13.505c1.995-.049 3.857-.377 5.585-.986 1.727-.608 3.224-1.484 4.489-2.627 1.265-1.144 2.25-2.543 2.957-4.198.705-1.655 1.058-3.553 1.058-5.694 0-2.093-.353-3.966-1.058-5.621-.706-1.655-1.692-3.054-2.957-4.197-1.265-1.144-2.762-2.032-4.49-2.665-1.727-.633-3.589-.973-5.584-1.022v27.01zm0 18.98h-6.57v-13.286c-2.871-.049-5.572-.511-8.103-1.387-2.53-.876-4.757-2.13-6.68-3.76-1.922-1.63-3.443-3.625-4.562-5.986-1.12-2.36-1.679-5.049-1.679-8.066 0-3.017.56-5.706 1.679-8.067 1.12-2.36 2.64-4.355 4.563-5.986 1.922-1.63 4.148-2.883 6.679-3.759 2.53-.876 5.232-1.338 8.103-1.387V231.52l6.57-1.168v18.469c2.823.049 5.511.511 8.067 1.387 2.555.876 4.793 2.13 6.716 3.76 1.922 1.63 3.443 3.625 4.562 5.985 1.12 2.36 1.679 5.05 1.679 8.067 0 3.017-.56 5.706-1.679 8.066-1.12 2.36-2.64 4.356-4.563 5.986-1.922 1.63-4.16 2.884-6.716 3.76-2.555.876-5.243 1.338-8.066 1.387v13.286zm64.121-32.485c0 3.017-.438 5.743-1.314 8.176-.876 2.433-2.105 4.526-3.686 6.278a16.216 16.216 0 0 1-5.658 4.052c-2.19.949-4.575 1.423-7.154 1.423-2.58 0-4.964-.474-7.154-1.423a16.216 16.216 0 0 1-5.658-4.052c-1.581-1.752-2.81-3.845-3.686-6.278-.876-2.433-1.314-5.159-1.314-8.176 0-2.969.438-5.682 1.314-8.14.876-2.457 2.105-4.562 3.687-6.314a16.216 16.216 0 0 1 5.657-4.052c2.19-.949 4.575-1.423 7.154-1.423 2.58 0 4.964.474 7.154 1.423 2.19.95 4.076 2.3 5.658 4.052 1.581 1.752 2.81 3.857 3.686 6.314.876 2.458 1.314 5.171 1.314 8.14zm-7.081 0c0-4.283-.961-7.677-2.884-10.184-1.922-2.506-4.538-3.759-7.847-3.759-3.31 0-5.925 1.253-7.848 3.76-1.922 2.506-2.883 5.9-2.883 10.183 0 4.283.961 7.677 2.883 10.184 1.923 2.506 4.539 3.759 7.848 3.759 3.31 0 5.925-1.253 7.847-3.76 1.923-2.506 2.884-5.9 2.884-10.183zm43.097.073c0-4.429-1.095-7.835-3.285-10.22-2.19-2.385-5.11-3.577-8.76-3.577-2.044 0-3.638.073-4.782.219-1.143.146-2.056.316-2.737.511v23.944c.827.681 2.02 1.338 3.577 1.971s3.26.949 5.11.949c1.947 0 3.613-.353 5-1.059a9.18 9.18 0 0 0 3.395-2.92c.876-1.24 1.509-2.7 1.898-4.38.39-1.679.584-3.491.584-5.438zm7.081 0c0 2.871-.377 5.524-1.132 7.957-.754 2.433-1.861 4.526-3.321 6.278a15.095 15.095 0 0 1-5.365 4.088c-2.118.973-4.539 1.46-7.264 1.46-2.19 0-4.124-.292-5.803-.876-1.68-.584-2.933-1.144-3.76-1.679v15.184h-6.789v-50.297c1.606-.39 3.613-.815 6.022-1.278 2.41-.462 5.196-.693 8.359-.693 2.92 0 5.548.462 7.884 1.387 2.336.925 4.331 2.239 5.986 3.942 1.655 1.703 2.932 3.784 3.832 6.241.9 2.458 1.351 5.22 1.351 8.286zm16.89-9.052a289.454 289.454 0 0 0-1.095 14.417 836.59 836.59 0 0 0-.584 13.542h-6.497c.097-2.969.243-6.071.438-9.308.195-3.236.414-6.496.657-9.782.243-3.285.511-6.52.803-9.709.292-3.187.608-6.241.949-9.161h6.205c1.557 2.53 3.382 5.998 5.475 10.402 2.093 4.405 4.502 9.478 7.227 15.221 2.725-5.743 5.134-10.816 7.227-15.22 2.093-4.405 3.918-7.872 5.475-10.403h6.278c.34 2.92.657 5.974.949 9.161.292 3.188.56 6.424.803 9.71a718.1 718.1 0 0 1 .657 9.781c.195 3.237.34 6.34.438 9.308h-6.716a836.59 836.59 0 0 0-.584-13.542 288.699 288.699 0 0 0-1.095-14.417 231.907 231.907 0 0 0-2.701 5.438 320.078 320.078 0 0 0-3.03 6.461 500.245 500.245 0 0 0-2.81 6.278 288.91 288.91 0 0 0-2.044 4.745h-5.694a590.617 590.617 0 0 0-2.154-4.818c-.9-1.995-1.849-4.1-2.846-6.315a271.088 271.088 0 0 0-3.03-6.497c-1.022-2.117-1.922-3.88-2.701-5.292zm59.084 23.068a73.6 73.6 0 0 0 4.27-.11c1.242-.073 2.276-.206 3.103-.401v-11.315c-.487-.243-1.277-.45-2.373-.62-1.095-.17-2.42-.256-3.978-.256-1.022 0-2.105.073-3.249.219-1.143.146-2.19.45-3.139.912a6.723 6.723 0 0 0-2.372 1.898c-.633.804-.949 1.862-.949 3.176 0 2.433.779 4.124 2.336 5.073 1.557.95 3.674 1.424 6.351 1.424zm-.584-34.018c2.725 0 5.025.353 6.899 1.058 1.873.706 3.382 1.704 4.525 2.993 1.144 1.29 1.96 2.823 2.446 4.6.487 1.776.73 3.735.73 5.876v23.725c-.584.097-1.4.231-2.446.401a71.35 71.35 0 0 1-3.54.475c-1.314.146-2.737.28-4.27.401a57.65 57.65 0 0 1-4.563.183c-2.141 0-4.112-.219-5.913-.657-1.8-.438-3.358-1.131-4.672-2.08-1.314-.95-2.336-2.203-3.066-3.76s-1.095-3.431-1.095-5.621c0-2.093.426-3.893 1.278-5.402a10.177 10.177 0 0 1 3.467-3.65c1.46-.925 3.163-1.606 5.11-2.044a27.864 27.864 0 0 1 6.132-.657c.681 0 1.387.036 2.117.11.73.072 1.423.17 2.08.291.658.122 1.23.232 1.716.329.487.097.827.17 1.022.219v-1.898c0-1.12-.122-2.226-.365-3.322a7.597 7.597 0 0 0-1.314-2.92c-.633-.851-1.496-1.532-2.591-2.044-1.096-.51-2.519-.766-4.271-.766-2.239 0-4.197.158-5.876.474-1.68.317-2.933.645-3.76.986l-.803-5.621c.876-.39 2.336-.766 4.38-1.132 2.044-.365 4.258-.547 6.643-.547zm56.237 33.288h5.11v16.206h-6.424V287h-28.981v-37.96h6.789v32.339h16.717V249.04h6.789v32.339zm44.484-32.339V287h-6.57v-28.908c-1.46 1.85-3.066 4.015-4.818 6.497a301.793 301.793 0 0 0-5.256 7.701 347.362 347.362 0 0 0-5.037 7.848 297.961 297.961 0 0 0-4.161 6.862h-6.059v-37.96h6.57v27.302a314.681 314.681 0 0 1 4.307-6.899 209.3 209.3 0 0 1 5-7.446 223.222 223.222 0 0 1 5.183-7.08c1.728-2.264 3.346-4.222 4.855-5.877h5.986zm27.475 23.214c-.73 0-1.436-.012-2.117-.037a48.106 48.106 0 0 1-1.971-.109 95.05 95.05 0 0 0-4.49 7.482A204.418 204.418 0 0 0 899.7 287h-6.862a52.953 52.953 0 0 1 2.044-4.344 144.9 144.9 0 0 1 2.373-4.343 76.153 76.153 0 0 1 2.445-4.015 101.454 101.454 0 0 1 2.336-3.431c-1.363-.487-2.482-1.083-3.358-1.789-.876-.705-1.582-1.496-2.117-2.372a9.092 9.092 0 0 1-1.131-2.81 14.088 14.088 0 0 1-.329-3.03c0-2.141.401-4.015 1.204-5.621a10.999 10.999 0 0 1 3.322-3.979c1.411-1.046 3.078-1.837 5-2.372 1.923-.535 4.028-.803 6.315-.803 3.212 0 5.937.146 8.176.438 2.239.292 4.112.633 5.621 1.022V287h-6.716v-14.746h-5.913zm5.913-18.177c-.535-.097-1.423-.195-2.665-.292a55.253 55.253 0 0 0-4.27-.146c-2.774 0-5.013.572-6.716 1.715-1.703 1.144-2.555 2.957-2.555 5.439 0 2.433.876 4.112 2.628 5.037 1.752.925 4.015 1.387 6.789 1.387h6.789v-13.14z" fill="#A2A2A2"/><path d="M114 62.4V201H82.8V88.8H31.2V201H0V62.4h114zm97.4 86.8c0-9.2-2.067-16.567-6.2-22.1-4.133-5.533-10.267-8.3-18.4-8.3-2.667 0-5.133.1-7.4.3-2.267.2-4.133.433-5.6.7v53.8c1.867 1.2 4.3 2.2 7.3 3 3 .8 6.033 1.2 9.1 1.2 14.133 0 21.2-9.533 21.2-28.6zm30.4-.8c0 8.133-1 15.533-3 22.2s-4.933 12.4-8.8 17.2c-3.867 4.8-8.667 8.533-14.4 11.2-5.733 2.667-12.333 4-19.8 4-4.133 0-8-.4-11.6-1.2-3.6-.8-7.067-1.933-10.4-3.4V231H144V99.4c2.667-.8 5.733-1.567 9.2-2.3 3.467-.733 7.1-1.367 10.9-1.9 3.8-.533 7.667-.967 11.6-1.3 3.933-.333 7.7-.5 11.3-.5 8.667 0 16.4 1.3 23.2 3.9 6.8 2.6 12.533 6.267 17.2 11s8.233 10.5 10.7 17.3c2.467 6.8 3.7 14.4 3.7 22.8zm63.2 31.8c2.933 0 5.733-.067 8.4-.2 2.667-.133 4.8-.333 6.4-.6v-22.6c-1.2-.267-3-.533-5.4-.8-2.4-.267-4.6-.4-6.6-.4-2.8 0-5.433.167-7.9.5-2.467.333-4.633.967-6.5 1.9-1.867.933-3.333 2.2-4.4 3.8-1.067 1.6-1.6 3.6-1.6 6 0 4.667 1.567 7.9 4.7 9.7 3.133 1.8 7.433 2.7 12.9 2.7zM302.6 93c8.8 0 16.133 1 22 3 5.867 2 10.567 4.867 14.1 8.6 3.533 3.733 6.033 8.267 7.5 13.6 1.467 5.333 2.2 11.267 2.2 17.8v62c-4.267.933-10.2 2.033-17.8 3.3-7.6 1.267-16.8 1.9-27.6 1.9-6.8 0-12.967-.6-18.5-1.8-5.533-1.2-10.3-3.167-14.3-5.9-4-2.733-7.067-6.3-9.2-10.7-2.133-4.4-3.2-9.8-3.2-16.2 0-6.133 1.233-11.333 3.7-15.6 2.467-4.267 5.767-7.667 9.9-10.2 4.133-2.533 8.867-4.367 14.2-5.5 5.333-1.133 10.867-1.7 16.6-1.7 3.867 0 7.3.167 10.3.5 3 .333 5.433.767 7.3 1.3v-2.8c0-5.067-1.533-9.133-4.6-12.2-3.067-3.067-8.4-4.6-16-4.6-5.067 0-10.067.367-15 1.1-4.933.733-9.2 1.767-12.8 3.1l-3.8-24c1.733-.533 3.9-1.1 6.5-1.7 2.6-.6 5.433-1.133 8.5-1.6 3.067-.467 6.3-.867 9.7-1.2 3.4-.333 6.833-.5 10.3-.5zm102.6 39.6c2.933-2.8 6.033-5.867 9.3-9.2a639.324 639.324 0 0 0 9.5-9.9 935.662 935.662 0 0 0 16.2-17.7h36.2c-2.667 2.8-5.967 6.267-9.9 10.4-3.933 4.133-8.1 8.433-12.5 12.9-4.4 4.467-8.833 8.9-13.3 13.3-4.467 4.4-8.7 8.333-12.7 11.8 4 3.067 8.267 6.867 12.8 11.4 4.533 4.533 8.967 9.4 13.3 14.6a338.785 338.785 0 0 1 12.4 15.8c3.933 5.333 7.3 10.333 10.1 15h-34c-2.4-3.6-5.133-7.367-8.2-11.3a260.246 260.246 0 0 0-9.6-11.6 195.45 195.45 0 0 0-10.1-10.7c-3.4-3.333-6.567-6.2-9.5-8.6V201h-29.8V95.8h29.8v36.8zm178.2-12.4h-33.6V201H520v-80.8h-33.6V95.8h97v24.4zm113.8-24.4V201h-30c0-6.667.067-13.3.2-19.9.133-6.6.267-12.7.4-18.3.133-5.6.3-10.5.5-14.7.2-4.2.3-7.3.3-9.3-3.867 5.467-7.733 11-11.6 16.6-3.867 5.6-7.567 11.1-11.1 16.5-3.533 5.4-6.867 10.567-10 15.5s-5.9 9.467-8.3 13.6h-26.2V95.8h29.8c0 6.667-.033 13.033-.1 19.1a1045.46 1045.46 0 0 1-.3 16.5c-.133 4.933-.267 9.233-.4 12.9s-.2 6.5-.2 8.5c8-11.733 15.367-22.267 22.1-31.6 6.733-9.333 13.3-17.8 19.7-25.4h25.2zm57.8 36.8c2.933-2.8 6.033-5.867 9.3-9.2a639.324 639.324 0 0 0 9.5-9.9A935.662 935.662 0 0 0 790 95.8h36.2c-2.667 2.8-5.967 6.267-9.9 10.4-3.933 4.133-8.1 8.433-12.5 12.9-4.4 4.467-8.833 8.9-13.3 13.3-4.467 4.4-8.7 8.333-12.7 11.8 4 3.067 8.267 6.867 12.8 11.4 4.533 4.533 8.967 9.4 13.3 14.6a338.785 338.785 0 0 1 12.4 15.8c3.933 5.333 7.3 10.333 10.1 15h-34c-2.4-3.6-5.133-7.367-8.2-11.3a260.246 260.246 0 0 0-9.6-11.6 195.45 195.45 0 0 0-10.1-10.7c-3.4-3.333-6.567-6.2-9.5-8.6V201h-29.8V95.8H755v36.8zm125.6 47.6c2.933 0 5.733-.067 8.4-.2 2.667-.133 4.8-.333 6.4-.6v-22.6c-1.2-.267-3-.533-5.4-.8-2.4-.267-4.6-.4-6.6-.4-2.8 0-5.433.167-7.9.5-2.467.333-4.633.967-6.5 1.9-1.867.933-3.333 2.2-4.4 3.8-1.067 1.6-1.6 3.6-1.6 6 0 4.667 1.567 7.9 4.7 9.7 3.133 1.8 7.433 2.7 12.9 2.7zM878.2 93c8.8 0 16.133 1 22 3 5.867 2 10.567 4.867 14.1 8.6 3.533 3.733 6.033 8.267 7.5 13.6 1.467 5.333 2.2 11.267 2.2 17.8v62c-4.267.933-10.2 2.033-17.8 3.3-7.6 1.267-16.8 1.9-27.6 1.9-6.8 0-12.967-.6-18.5-1.8-5.533-1.2-10.3-3.167-14.3-5.9-4-2.733-7.067-6.3-9.2-10.7-2.133-4.4-3.2-9.8-3.2-16.2 0-6.133 1.233-11.333 3.7-15.6 2.467-4.267 5.767-7.667 9.9-10.2 4.133-2.533 8.867-4.367 14.2-5.5 5.333-1.133 10.867-1.7 16.6-1.7 3.867 0 7.3.167 10.3.5 3 .333 5.433.767 7.3 1.3v-2.8c0-5.067-1.533-9.133-4.6-12.2-3.067-3.067-8.4-4.6-16-4.6-5.067 0-10.067.367-15 1.1-4.933.733-9.2 1.767-12.8 3.1l-3.8-24c1.733-.533 3.9-1.1 6.5-1.7 2.6-.6 5.433-1.133 8.5-1.6 3.067-.467 6.3-.867 9.7-1.2 3.4-.333 6.833-.5 10.3-.5z" fill="#000" fill-rule="nonzero"/><path d="M956 115c0-29.271-23.729-53-53-53" stroke="#2CCD89" stroke-width="25"/><path d="M1002 115c0-77-65-100-98.749-100" stroke="#2CCD89" stroke-width="30"/></g></svg>