<svg width="164" height="164" viewBox="0 0 164 164" xmlns="http://www.w3.org/2000/svg"><title>rss</title><g fill="none" fill-rule="evenodd"><rect fill="#1A1A1A" width="164" height="164" rx="12"/><g fill-rule="nonzero" fill="#FFF"><path d="M53.5 99c-6.887 0-12.5 5.633-12.5 12.522C41 118.434 46.613 124 53.5 124c6.91 0 12.5-5.588 12.5-12.478S60.41 99 53.5 99z"/><path d="M41 69v17.166c10.313 0 20.217 3.05 27.5 10.334 7.283 7.283 10.313 17.166 10.313 27.5H96c0-30.057-24.922-55-55-55z"/><path d="M41 41v17.27c36.96 0 65.687 28.747 65.687 65.73H124c0-45.758-37.177-83-83-83z"/></g></g></svg>