<svg width="164" height="164" viewBox="0 0 164 164" xmlns="http://www.w3.org/2000/svg"><title>telegram</title><g fill="none" fill-rule="evenodd"><rect fill="#1A1A1A" width="164" height="164" rx="12"/><path d="M121.035 44.506L40.257 75.662c-5.513 2.212-5.48 5.287-1.005 6.658L59.4 88.608l7.708 23.634c.937 2.587.475 3.613 3.192 3.613 2.096 0 3.026-.956 4.193-2.097.743-.726 5.15-5.012 10.073-9.797l20.956 15.483c3.856 2.127 6.64 1.025 7.6-3.582l13.756-64.823c1.409-5.647-2.152-8.208-5.842-6.533zM62.56 87.164l45.41-28.65c2.267-1.375 4.346-.635 2.64.88L71.725 94.476l-1.514 16.147-7.652-23.46z" fill-rule="nonzero" fill="#FFF"/></g></svg>