<svg viewBox="0 0 1800 442" xmlns="http://www.w3.org/2000/svg"><title>telegram banner</title><defs><linearGradient x1="50%" y1="0%" x2="50%" y2="100%" id="a"><stop stop-color="#37AEE2" offset="0%"/><stop stop-color="#1E96C8" offset="100%"/></linearGradient><linearGradient x1="61.235%" y1="43.69%" x2="74.706%" y2="80.24%" id="b"><stop stop-color="#EFF7FC" offset="0%"/><stop stop-color="#FFF" offset="100%"/></linearGradient></defs><g fill="none" fill-rule="evenodd"><path fill="url(#a)" d="M0 0h1800v442H0z"/><path d="M215.507 213.756c9.261 0 14.553-5.103 17.577-10.332l-7.686-3.717c-1.764 3.465-5.544 6.111-9.891 6.111-7.623 0-13.167-5.859-13.167-13.797 0-7.938 5.544-13.797 13.167-13.797 4.347 0 8.127 2.709 9.891 6.111l7.686-3.78c-2.961-5.229-8.316-10.269-17.577-10.269-12.6 0-22.365 8.82-22.365 21.735s9.765 21.735 22.365 21.735zm20.008 0c7.749 0 11.529-4.977 12.789-15.498l1.008-8.694h9.639V213h8.001v-30.429h-24.633l-1.953 14.742c-.945 7.371-2.394 9.891-4.851 9.891v6.552zm53.776 0c-9.261 0-16.254-6.237-16.254-16.002 0-8.82 6.489-15.939 15.75-15.939 9.072 0 15.246 6.804 15.246 16.758v1.764h-22.617c.504 3.843 3.591 7.056 8.757 7.056 2.583 0 6.174-1.134 8.127-3.024l3.528 5.166c-3.024 2.772-7.812 4.221-12.537 4.221zm6.993-18.837c-.189-2.898-2.205-6.741-7.497-6.741-4.977 0-7.119 3.717-7.497 6.741h14.994zm10.81 25.83v-14.427c2.457-.441 3.906-1.638 4.851-9.009l1.953-14.742h24.633v23.436h3.339v14.742h-8.001V213h-18.711v7.749h-8.064zm13.797-31.185l-.945 8.253c-.441 3.717-1.638 6.426-3.528 8.19h14.112v-16.443h-9.639zM354.696 213l12.915-19.089V213h8.001v-30.429h-8.064l-12.537 18.396v-18.396h-8.001V213h7.686zm56.27.756c9.072 0 14.679-3.78 14.679-9.135 0-4.599-4.851-6.993-8.568-7.245 4.032-.63 7.938-3.276 7.938-7.182 0-5.166-5.355-8.379-14.868-8.316-5.544 0-9.954 2.079-12.915 5.04l3.906 4.725c2.394-2.331 5.481-3.465 9.45-3.465 3.591 0 6.111 1.26 6.111 3.087 0 2.142-2.079 3.276-6.237 3.276h-6.237v6.174h6.237c4.158 0 6.804 1.071 6.804 3.402 0 1.953-2.205 3.276-6.3 3.276-3.654 0-7.686-1.071-10.521-3.465l-3.654 4.977c2.961 2.898 7.875 4.851 14.175 4.851zm47.035-.756H450v-3.15c-2.079 2.457-5.67 3.906-9.639 3.906-4.851 0-10.584-3.276-10.584-10.08 0-7.119 5.733-9.828 10.584-9.828 4.032 0 7.623 1.323 9.639 3.717v-4.095c0-3.087-2.646-5.103-6.678-5.103-3.276 0-6.3 1.197-8.883 3.591l-3.024-5.355c3.717-3.276 8.505-4.788 13.293-4.788 6.93 0 13.293 2.772 13.293 11.529V213zm-14.427-4.662c2.583 0 5.103-.882 6.426-2.646v-3.78c-1.323-1.764-3.843-2.646-6.426-2.646-3.15 0-5.733 1.638-5.733 4.599 0 2.835 2.583 4.473 5.733 4.473zM490.268 213v-12.159h12.6V213h8.001v-30.429h-8.001v11.277h-12.6v-11.277h-8.001V213h8.001zm54.91 0h-8.001v-3.15c-2.079 2.457-5.67 3.906-9.639 3.906-4.851 0-10.584-3.276-10.584-10.08 0-7.119 5.733-9.828 10.584-9.828 4.032 0 7.623 1.323 9.639 3.717v-4.095c0-3.087-2.646-5.103-6.678-5.103-3.276 0-6.3 1.197-8.883 3.591l-3.024-5.355c3.717-3.276 8.505-4.788 13.293-4.788 6.93 0 13.293 2.772 13.293 11.529V213zm-14.427-4.662c2.583 0 5.103-.882 6.426-2.646v-3.78c-1.323-1.764-3.843-2.646-6.426-2.646-3.15 0-5.733 1.638-5.733 4.599 0 2.835 2.583 4.473 5.733 4.473zM589.189 213v-30.429h-10.584l-7.371 18.144-7.497-18.144h-10.521V213h8.001v-19.782l8.19 19.782h3.654l8.127-19.782V213h8.001zm15.724 0l12.915-19.089V213h8.001v-30.429h-8.064l-12.537 18.396v-18.396h-8.001V213h7.686zm65.027 0h-19.845v-30.429h19.278c6.174 0 9.324 3.717 9.324 7.812 0 3.654-2.331 6.111-5.166 6.93 3.339.756 5.796 3.78 5.796 7.434 0 4.599-3.276 8.253-9.387 8.253zm-1.953-6.552c1.953 0 3.15-1.071 3.15-2.835 0-1.512-1.134-2.835-3.15-2.835h-9.891v5.67h9.891zm-.252-12.222c1.764 0 2.835-1.134 2.835-2.52 0-1.512-1.071-2.583-2.835-2.583h-9.639v5.103h9.639zM722.241 213h-9.009v-34.146h-12.285v-7.875h33.516v7.875h-12.222V213zm25.993.756c-9.261 0-16.254-6.237-16.254-16.002 0-8.82 6.489-15.939 15.75-15.939 9.072 0 15.246 6.804 15.246 16.758v1.764h-22.617c.504 3.843 3.591 7.056 8.757 7.056 2.583 0 6.174-1.134 8.127-3.024l3.528 5.166c-3.024 2.772-7.812 4.221-12.537 4.221zm6.993-18.837c-.189-2.898-2.205-6.741-7.497-6.741-4.977 0-7.119 3.717-7.497 6.741h14.994zM776.873 213v-42.021h-8.001V213h8.001zm22.339.756c-9.261 0-16.254-6.237-16.254-16.002 0-8.82 6.489-15.939 15.75-15.939 9.072 0 15.246 6.804 15.246 16.758v1.764h-22.617c.504 3.843 3.591 7.056 8.757 7.056 2.583 0 6.174-1.134 8.127-3.024l3.528 5.166c-3.024 2.772-7.812 4.221-12.537 4.221zm6.993-18.837c-.189-2.898-2.205-6.741-7.497-6.741-4.977 0-7.119 3.717-7.497 6.741h14.994zm26.119 30.429c-5.229 0-9.261-1.197-13.104-4.536l3.591-5.796c2.457 2.709 5.67 3.78 9.513 3.78s8.379-1.701 8.379-7.686v-3.087c-2.394 3.024-5.67 4.788-9.387 4.788-7.623 0-13.419-5.355-13.419-15.498 0-9.954 5.733-15.498 13.419-15.498 3.654 0 6.93 1.575 9.387 4.662v-3.906h8.064v28.35c0 11.592-8.946 14.427-16.443 14.427zm1.512-19.656c2.646 0 5.544-1.512 6.867-3.465v-9.828c-1.323-2.016-4.221-3.465-6.867-3.465-4.536 0-7.686 3.15-7.686 8.379 0 5.229 3.15 8.379 7.686 8.379zm30.97 7.308v-20.097c1.323-1.953 4.851-3.465 7.497-3.465.882 0 1.638.063 2.205.189v-7.812c-3.78 0-7.56 2.205-9.702 4.914v-4.158h-8.001V213h8.001zm41.05 0h-8.001v-3.15c-2.079 2.457-5.67 3.906-9.639 3.906-4.851 0-10.584-3.276-10.584-10.08 0-7.119 5.733-9.828 10.584-9.828 4.032 0 7.623 1.323 9.639 3.717v-4.095c0-3.087-2.646-5.103-6.678-5.103-3.276 0-6.3 1.197-8.883 3.591l-3.024-5.355c3.717-3.276 8.505-4.788 13.293-4.788 6.93 0 13.293 2.772 13.293 11.529V213zm-14.427-4.662c2.583 0 5.103-.882 6.426-2.646v-3.78c-1.323-1.764-3.843-2.646-6.426-2.646-3.15 0-5.733 1.638-5.733 4.599 0 2.835 2.583 4.473 5.733 4.473zM959.695 213v-21.987c0-6.237-3.339-9.198-8.946-9.198-4.662 0-8.694 2.772-10.458 5.544-1.134-3.465-3.969-5.544-8.442-5.544-4.662 0-8.694 2.898-9.954 4.725v-3.969h-8.001V213h8.001v-20.475c1.197-1.701 3.528-3.591 6.3-3.591 3.276 0 4.536 2.016 4.536 4.851V213h8.064v-20.538c1.134-1.638 3.465-3.528 6.3-3.528 3.276 0 4.536 2.016 4.536 4.851V213h8.064zm-755.539 58.47c4.738 0 7.36-4.048 7.36-8.648 0-4.462-2.622-8.51-7.36-8.51s-7.406 4.048-7.406 8.51c0 4.6 2.668 8.648 7.406 8.648zm0 3.082c-6.808 0-10.994-5.336-10.994-12.696 0-10.81 3.91-15.272 11.638-16.284 4.876-.736 6.256-1.334 6.256-2.254h3.358c0 3.634-4.968 4.6-8.74 5.106-6.578.92-8.556 3.772-9.338 7.544 1.61-2.53 4.416-4.738 8.372-4.738 6.302 0 10.396 5.29 10.396 11.592 0 6.394-4.094 11.73-10.948 11.73zm15.694 8.142c.644.184 1.794.322 2.53.322 2.944-.046 5.198-1.288 6.532-4.508l11.132-26.726h-3.772l-7.36 18.216-7.406-18.216h-3.726l9.292 22.448-1.472 3.358c-.782 1.84-1.794 2.346-3.312 2.346-.552 0-1.38-.138-1.886-.368l-.552 3.128zm21.26-3.036v-8.51c2.07-.368 3.358-1.84 4.232-8.418l1.426-10.948h15.456v19.182h2.576v8.694h-3.45V274h-16.79v5.658h-3.45zm8.694-24.84l-1.012 8.326c-.552 4.186-1.61 6.532-3.22 7.82h13.202v-16.146h-8.97zm19.834-3.036h3.45v8.602h8.326c4.6 0 6.992 3.174 6.992 6.808 0 3.68-2.438 6.808-6.992 6.808h-11.776v-22.218zm11.408 11.638h-7.958v7.544h7.958c2.484 0 3.818-1.564 3.818-3.772 0-2.162-1.288-3.772-3.818-3.772zM324.21 274v-22.218h-18.492V274h3.45v-19.182h11.592V274h3.45zm17.028.552c-6.578 0-11.316-4.738-11.316-11.684 0-6.44 4.6-11.638 10.948-11.638 6.716 0 10.672 5.244 10.672 11.914v.874h-17.986c.276 4.186 3.22 7.682 8.004 7.682 2.53 0 5.106-1.012 6.854-2.806l1.656 2.254c-2.208 2.208-5.198 3.404-8.832 3.404zm6.9-13.064c-.046-3.312-2.254-7.406-7.314-7.406-4.738 0-7.084 4.002-7.268 7.406h14.582zm20.018 13.064c-3.036 0-5.704-1.426-7.498-3.91v11.822h-3.45v-30.682h3.45v3.312c1.61-2.254 4.37-3.864 7.498-3.864 5.842 0 9.89 4.416 9.89 11.638 0 7.176-4.048 11.684-9.89 11.684zm-.874-3.082c4.462 0 7.13-3.68 7.13-8.602 0-4.922-2.668-8.556-7.13-8.556-2.714 0-5.428 1.61-6.624 3.542v10.028c1.196 1.932 3.91 3.588 6.624 3.588zm28.804 2.53H383.62v-22.218h12.236c3.91 0 6.256 2.346 6.256 5.704 0 2.668-1.702 4.462-3.588 5.06 2.254.552 4.048 2.898 4.048 5.428 0 3.588-2.392 6.026-6.486 6.026zm-.69-3.036c2.208 0 3.588-1.288 3.588-3.404 0-1.794-1.242-3.45-3.588-3.45h-8.326v6.854h8.326zm-.138-9.89c2.162 0 3.312-1.334 3.312-3.082 0-1.932-1.196-3.174-3.312-3.174h-8.188v6.256h8.188zm13.946-9.292h3.45v8.602h8.326c4.6 0 6.992 3.174 6.992 6.808 0 3.68-2.438 6.808-6.992 6.808h-11.776v-22.218zm11.408 11.638h-7.958v7.544h7.958c2.484 0 3.818-1.564 3.818-3.772 0-2.162-1.288-3.772-3.818-3.772zM435.056 274v-22.218h-3.45V274h3.45zm29.678 0v-22.218h-4.6l-6.716 16.468-6.808-16.468h-4.554V274h3.45v-17.434L452.774 274h1.288l7.222-17.434V274h3.45zm31.434 0h-12.466v-22.218h12.236c3.91 0 6.256 2.346 6.256 5.704 0 2.668-1.702 4.462-3.588 5.06 2.254.552 4.048 2.898 4.048 5.428 0 3.588-2.392 6.026-6.486 6.026zm-.69-3.036c2.208 0 3.588-1.288 3.588-3.404 0-1.794-1.242-3.45-3.588-3.45h-8.326v6.854h8.326zm-.138-9.89c2.162 0 3.312-1.334 3.312-3.082 0-1.932-1.196-3.174-3.312-3.174h-8.188v6.256h8.188zM540.804 274l-9.89-12.144 9.844-10.074h-4.37l-11.684 11.822v-11.822h-3.45V274h3.45v-6.348l3.68-3.634 8.004 9.982h4.416zm2.952 8.694c.644.184 1.794.322 2.53.322 2.944-.046 5.198-1.288 6.532-4.508l11.132-26.726h-3.772l-7.36 18.216-7.406-18.216h-3.726l9.292 22.448-1.472 3.358c-.782 1.84-1.794 2.346-3.312 2.346-.552 0-1.38-.138-1.886-.368l-.552 3.128zm34.83-8.142c-3.036 0-5.704-1.426-7.498-3.91v11.822h-3.45v-30.682h3.45v3.312c1.61-2.254 4.37-3.864 7.498-3.864 5.842 0 9.89 4.416 9.89 11.638 0 7.176-4.048 11.684-9.89 11.684zm-.874-3.082c4.462 0 7.13-3.68 7.13-8.602 0-4.922-2.668-8.556-7.13-8.556-2.714 0-5.428 1.61-6.624 3.542v10.028c1.196 1.932 3.91 3.588 6.624 3.588zm26.136 3.082c4.048 0 6.44-1.656 8.142-3.864l-2.3-2.116c-1.472 1.978-3.358 2.898-5.658 2.898-4.738 0-7.682-3.68-7.682-8.602 0-4.922 2.944-8.556 7.682-8.556 2.3 0 4.186.874 5.658 2.898l2.3-2.116c-1.702-2.208-4.094-3.864-8.142-3.864-6.624 0-11.086 5.06-11.086 11.638 0 6.624 4.462 11.684 11.086 11.684zm23.1 0c-6.578 0-11.316-4.738-11.316-11.684 0-6.44 4.6-11.638 10.948-11.638 6.716 0 10.672 5.244 10.672 11.914v.874h-17.986c.276 4.186 3.22 7.682 8.004 7.682 2.53 0 5.106-1.012 6.854-2.806l1.656 2.254c-2.208 2.208-5.198 3.404-8.832 3.404zm6.9-13.064c-.046-3.312-2.254-7.406-7.314-7.406-4.738 0-7.084 4.002-7.268 7.406h14.582zm30.836 13.064c4.048 0 6.44-1.656 8.142-3.864l-2.3-2.116c-1.472 1.978-3.358 2.898-5.658 2.898-4.738 0-7.682-3.68-7.682-8.602 0-4.922 2.944-8.556 7.682-8.556 2.3 0 4.186.874 5.658 2.898l2.3-2.116c-1.702-2.208-4.094-3.864-8.142-3.864-6.624 0-11.086 5.06-11.086 11.638 0 6.624 4.462 11.684 11.086 11.684zm22.778 0c-6.762 0-10.994-5.244-10.994-11.684 0-6.44 4.232-11.638 10.994-11.638s10.994 5.198 10.994 11.638c0 6.44-4.232 11.684-10.994 11.684zm0-3.082c4.738 0 7.36-4.048 7.36-8.602 0-4.508-2.622-8.556-7.36-8.556s-7.406 4.048-7.406 8.556c0 4.554 2.668 8.602 7.406 8.602zm26.412 0c4.738 0 7.36-4.048 7.36-8.648 0-4.462-2.622-8.51-7.36-8.51s-7.406 4.048-7.406 8.51c0 4.6 2.668 8.648 7.406 8.648zm0 3.082c-6.808 0-10.994-5.336-10.994-12.696 0-10.81 3.91-15.272 11.638-16.284 4.876-.736 6.256-1.334 6.256-2.254h3.358c0 3.634-4.968 4.6-8.74 5.106-6.578.92-8.556 3.772-9.338 7.544 1.61-2.53 4.416-4.738 8.372-4.738 6.302 0 10.396 5.29 10.396 11.592 0 6.394-4.094 11.73-10.948 11.73zm16.936-22.77h3.45v8.602h8.326c4.6 0 6.992 3.174 6.992 6.808 0 3.68-2.438 6.808-6.992 6.808H730.81v-22.218zm11.408 11.638h-7.958v7.544h7.958c2.484 0 3.818-1.564 3.818-3.772 0-2.162-1.288-3.772-3.818-3.772zM756.662 274v-22.218h-3.45V274h3.45zm14.498 0v-19.182h6.486v-3.036H761.27v3.036h6.44V274h3.45zm14.406 0l11.73-17.296V274h3.45v-22.218h-3.404l-11.638 16.974v-16.974h-3.45V274h3.312zm25.492 0l11.73-17.296V274h3.45v-22.218h-3.404l-11.638 16.974v-16.974h-3.45V274h3.312zm13.984-28.796l-1.702-1.472c-1.426 2.07-3.68 3.312-6.348 3.312-2.714 0-4.922-1.288-6.394-3.312l-1.702 1.472c1.886 2.484 4.83 4.048 8.096 4.048a9.933 9.933 0 0 0 8.05-4.048z" fill="#FFF"/><g fill-rule="nonzero"><path d="M1301.273 382c-12.944 0-10.745-4.914-15.209-17.304L1248 238.752 1541 64" fill="#C8DAEA"/><path d="M1301 381c9.955 0 14.353-4.574 19.91-10.002l53.09-51.872L1307.776 279" fill="#A9C9DD"/><path d="M170.805 241.537l161.58 119.478c18.438 10.182 31.746 4.91 36.339-17.133l65.77-310.2c6.735-27.02-10.29-39.276-27.93-31.26L20.358 151.466C-6.005 162.05-5.85 176.77 15.552 183.329l99.11 30.96L344.11 69.408c10.832-6.574 20.774-3.04 12.614 4.208" fill="url(#b)" transform="translate(1137 38)"/></g></g></svg>