<svg width="164" height="164" viewBox="0 0 164 164" xmlns="http://www.w3.org/2000/svg"><title>twitter</title><g fill="none" fill-rule="evenodd"><rect fill="#1A1A1A" width="164" height="164" rx="12"/><path d="M64.761 120.604c35.731 0 55.275-29.863 55.275-55.741 0-.839 0-1.677-.06-2.546a39.7 39.7 0 0 0 9.683-10.154 38.012 38.012 0 0 1-11.168 3.085 19.603 19.603 0 0 0 8.555-10.842 38.936 38.936 0 0 1-12.327 4.762c-7.366-7.877-19.662-8.267-27.474-.839a19.694 19.694 0 0 0-5.613 18.72c-15.623-.778-30.177-8.236-40.038-20.457-5.168 8.956-2.525 20.398 6 26.148a19.055 19.055 0 0 1-8.822-2.456v.24c0 9.315 6.534 17.342 15.594 19.2a19.248 19.248 0 0 1-8.762.329c2.554 7.967 9.83 13.448 18.147 13.598-6.89 5.451-15.385 8.416-24.118 8.416-1.544 0-3.089-.09-4.633-.27a54.612 54.612 0 0 0 29.761 8.807" fill-rule="nonzero" fill="#FFF"/></g></svg>