<svg width="66" height="86" viewBox="0 0 66 86" xmlns="http://www.w3.org/2000/svg"><title>user agreement</title><path d="M0 0v86h66l-.062-69.688c-3.875 2.291-8.123 3.99-12.582 2.594-1.33-.388-1.829-2.37-.843-3.344 1.092-2.064.75-4.594.031-6.656-1.561-3.919-4.558-7.919-8.46-8L0 0zm52.232 1.562c1.954 1.622 3.306 3.805 4.09 6 .88 2.776 1.133 5.255.562 7.844 2.444-.072 6.163-1.572 9.054-3.375-2.966-5.044-7.962-9.044-13.706-10.469zM19.013 15h27.974v4H19.013v-4zM7.993 29h21.979v4H7.992v-4zm27.973 0h21.98v4h-21.98v-4zM7.992 37h21.98v4H7.992v-4zm27.974 0h21.98v4h-21.98v-4zM7.992 45h21.98v4H7.992v-4zm27.974 0h21.98v4h-21.98v-4zM7.992 53h21.98v4H7.992v-4zm27.974 0h21.98v4h-21.98v-4zM7.992 61h21.98v4H7.992v-4zm27.974 0h21.98v4h-21.98v-4zM7.992 69h21.98v4H7.992v-4zm27.974 0h21.98v4h-21.98v-4z" fill="#FFF"/></svg>