<svg width="164" height="164" viewBox="0 0 164 164" xmlns="http://www.w3.org/2000/svg"><title>vk</title><g fill="none" fill-rule="evenodd"><rect fill="#1A1A1A" width="164" height="164" rx="12"/><path d="M119.506 87.143c1.11-2.09 5.04-8.079 7.999-12.536C136.382 61.421 138 58.636 138 56.964a2.317 2.317 0 0 0-2.312-2.321h-20.805a2.314 2.314 0 0 0-2.266 1.903C111.462 62.954 96.482 81.34 94.124 82.5c-.971 0-2.312-2.414-2.312-6.964V55.943a5.496 5.496 0 0 0-1.11-4.318C89.13 50 86.772 50 80.207 50c-11.928 0-16.182 3.575-16.182 6.964-.051.59.144 1.175.538 1.615.395.44.953.696 1.543.707 0 0 2.543 1.671 2.543 11.607.13 3.879-.07 7.762-.601 11.607-5.872-1.068-14.01-15.786-17.893-26.371a2.311 2.311 0 0 0-2.312-1.486H29.35a2.308 2.308 0 0 0-1.802.82 2.328 2.328 0 0 0-.51 1.92C29.627 71.402 58.986 115 77.895 115h9.247c4.901 0 5.271-5.34 5.548-8.868.278-3.528.509-5.06 1.387-5.06 2.867 0 8.739 5.107 12.576 8.45 3.838 3.342 6.334 5.478 8.23 5.478h11.558c5.965 0 11.559 0 11.559-4.643 0-1.764-1.526-3.807-10.31-13.928-2.913-3.204-6.843-7.615-8.184-9.286z" fill="#FFF" fill-rule="nonzero"/></g></svg>